# xmcd
#
# Track frame offsets:
#	183
#	14970
#	29303
#	40570
#	52965
#	66230
#	78275
#	90315
#	102930
#	115283
#	127000
#	139530
#	152313
#	164805
#	178733
#	200755
#	214508
#	225005
#	235590
#
# Disc length: 3324
#
# Revision: 1
# Processed by: cddbd v1.5.1PL0 Copyright (c) Steve Scherf et al.
# Submitted via: audiograbber 1.82.02
# Normalized: r0:DSETVAR1
#
DISCID=f10cfa13
DTITLE=Various Artist - Chicago Blues Harmonicas
DYEAR=1900
DGENRE=Blues
TTITLE0=Baby Face Leroy - My Head Can't Rest Any More
TTITLE1=Baby Face Leroy - Take A Little Walk With Me
TTITLE2=Snooky Pryor - Boogy Fool
TTITLE3=Snooky Pryor - Raisin' Sand
TTITLE4=Snooky Pryor - Cryin' Shame
TTITLE5=Snooky Pryor - Eighty Nine Ten
TTITLE6=John Lee Henry - Rythm Rockin' Boogie
TTITLE7=John Lee Henry - Knockin' On Lula Mae's Door
TTITLE8=Little Willie Foster - Crying The Blues
TTITLE9=Little Willie Foster - Little Girl
TTITLE10=Louis Myers - Bluesy
TTITLE11=Arbee Stidham - When I Find My Baby
TTITLE12=Louis Myers - Just Whaling
TTITLE13=Sonny Boy Williamson - Steady Rollin' MAn
TTITLE14=Sonny Boy Williamson - Take Your Hand Out Of My Pocket
TTITLE15=Charles Clark - Row Your Boat
TTITLE16=Shakey Horton - Need My Baby
TTITLE17=Shakey Horton - Have A Good Time
TTITLE18=Sunnyland Slim - Highway 61
EXTD=ID3G:   0
EXTT0=
EXTT1=
EXTT2=
EXTT3=
EXTT4=
EXTT5=
EXTT6=
EXTT7=
EXTT8=
EXTT9=
EXTT10=
EXTT11=
EXTT12=
EXTT13=
EXTT14=
EXTT15=
EXTT16=
EXTT17=
EXTT18=
PLAYORDER=
